<svg xmlns="http://www.w3.org/2000/svg" version="1.1" xmlns:xlink="http://www.w3.org/1999/xlink" xmlns:svgjs="http://svgjs.dev/svgjs" width="2880" height="1500" preserveAspectRatio="none" viewBox="0 0 2880 1500"><g mask="url(&quot;#SvgjsMask1109&quot;)" fill="none"><rect width="2880" height="1500" x="0" y="0" fill="#1e3266"></rect><path d="M2976 1500L0 1500 L0 705.21Q110.51 575.73, 240 686.24Q327.34 629.58, 384 716.91Q478.87 667.77, 528 762.64Q607.25 601.89, 768 681.15Q873.78 642.93, 912 748.72Q966.78 659.5, 1056 714.28Q1237.1 655.38, 1296 836.47Q1330.03 726.5, 1440 760.53Q1527.38 607.9, 1680 695.28Q1768.19 639.47, 1824 727.67Q2059.11 722.77, 2064 957.88Q2105.8 855.67, 2208 897.47Q2271.97 817.44, 2352 881.41Q2442.8 828.21, 2496 919.01Q2560.82 743.83, 2736 808.65Q2820.74 653.39, 2976 738.13z" fill="#182f5d"></path><path d="M2976 1500L0 1500 L0 1109.64Q17.89 887.54, 240 905.43Q354.9 780.33, 480 895.22Q595.66 866.88, 624 982.54Q735.38 949.91, 768 1061.29Q837.28 890.57, 1008 959.85Q1099.93 907.79, 1152 999.72Q1345.2 952.92, 1392 1146.12Q1432.33 1042.45, 1536 1082.78Q1609.33 916.11, 1776 989.44Q1886.85 956.29, 1920 1067.13Q1965.65 872.78, 2160 918.43Q2300.5 818.93, 2400 959.43Q2526.45 941.88, 2544 1068.34Q2586.12 966.46, 2688 1008.58Q2706.95 883.53, 2832 902.48Q2913.01 839.5, 2976 920.51z" fill="#25467d"></path><path d="M3072 1500L0 1500 L0 1360.53Q-24.13 1192.39, 144 1168.26Q195.98 1076.24, 288 1128.22Q418.95 1019.17, 528 1150.12Q702.69 1180.81, 672 1355.5Q665.19 1108.69, 912 1101.88Q977.79 1023.67, 1056 1089.46Q1191 984.46, 1296 1119.46Q1426.53 1105.99, 1440 1236.52Q1529.23 1181.75, 1584 1270.98Q1731.32 1178.3, 1824 1325.61Q1852.07 1209.68, 1968 1237.75Q1990.19 1115.94, 2112 1138.13Q2214.65 1000.78, 2352 1103.43Q2576.72 1088.15, 2592 1312.87Q2740.18 1221.05, 2832 1369.23Q2843.64 1140.87, 3072 1152.51z" fill="#356cb1"></path><path d="M2976 1500L0 1500 L0 1452.23Q144.08 1356.31, 240 1500.39Q266.88 1383.27, 384 1410.14Q418.69 1300.83, 528 1335.52Q610.81 1274.33, 672 1357.13Q796.68 1337.81, 816 1462.49Q894.64 1397.13, 960 1475.78Q1072.89 1444.67, 1104 1557.56Q1132.26 1345.82, 1344 1374.09Q1381.49 1267.58, 1488 1305.07Q1622.9 1199.97, 1728 1334.87Q1874.74 1241.61, 1968 1388.36Q2133.57 1313.93, 2208 1479.5Q2214.94 1342.44, 2352 1349.38Q2429.69 1283.08, 2496 1360.77Q2625.61 1250.38, 2736 1380Q2913.45 1317.45, 2976 1494.9z" fill="rgba(239, 239, 239, 1)"></path></g><defs><mask id="SvgjsMask1109"><rect width="2880" height="1500" fill="#ffffff"></rect></mask></defs></svg>